X Lossless Decoder version 20110502 (132.0)

XLD extraction logfile from 2011-05-03 17:56:12 +0900

SUEMITSU & THE SUEMITH / The Piano It's me (special disc)

Used drive : MATSHITA DVD-R   UJ-868 (revision KB19)

Ripper mode             : CDParanoia III 10.2
Disable audio cache     : OK for the drive with a cache less than 2750KiB
Make use of C2 pointers : NO
Read offset correction  : 102
Max retry count         : 100
Gap status              : Analyzed, Appended

TOC of the extracted CD
     Track |   Start  |  Length  | Start sector | End sector 
    ---------------------------------------------------------
        1  | 00:00:00 | 00:37:69 |         0    |     2843   
        2  | 00:37:69 | 02:58:62 |      2844    |    16255   
        3  | 03:36:56 | 01:35:19 |     16256    |    23399   
        4  | 05:12:00 | 04:29:15 |     23400    |    43589   

AccurateRip Summary
    Track 01 : OK (confidence 3)
    Track 02 : OK (confidence 3)
    Track 03 : OK (confidence 3)
    Track 04 : NG
        ->3 track(s) accurately ripped, 1 track(s) not, 0 track(s) not found

All Tracks
    Filename : /Users/m4c/Public/flac/The Piano It's me (special disc).flac
    CRC32 hash             : FBEF3FDA
    CRC32 hash (skip zero) : A998BF3C
    Statistics
        Read error                           : 0
        Skipped (treated as error)           : 0
        Edge jitter error (maybe fixed)      : 2
        Atom jitter error (maybe fixed)      : 1
        Drift error (maybe fixed)            : 0
        Dropped bytes error (maybe fixed)    : 1
        Duplicated bytes error (maybe fixed) : 1

Track 01
    Pre-gap length : 00:02:00

    CRC32 hash             : 1A07F455
    CRC32 hash (skip zero) : AD8D0C3C
    AccurateRip signature  : B35BFA7D
        ->Accurately ripped! (confidence 3)
    Statistics
        Read error                           : 0
        Skipped (treated as error)           : 0
        Edge jitter error (maybe fixed)      : 0
        Atom jitter error (maybe fixed)      : 0
        Drift error (maybe fixed)            : 0
        Dropped bytes error (maybe fixed)    : 0
        Duplicated bytes error (maybe fixed) : 0

Track 02

    CRC32 hash             : E04FE0BC
    CRC32 hash (skip zero) : 6BFC7E52
    AccurateRip signature  : AD92F6ED
        ->Accurately ripped! (confidence 3)
    Statistics
        Read error                           : 0
        Skipped (treated as error)           : 0
        Edge jitter error (maybe fixed)      : 0
        Atom jitter error (maybe fixed)      : 0
        Drift error (maybe fixed)            : 0
        Dropped bytes error (maybe fixed)    : 0
        Duplicated bytes error (maybe fixed) : 0

Track 03

    CRC32 hash             : 09E0FA87
    CRC32 hash (skip zero) : 681C2891
    AccurateRip signature  : 1DC0F72D
        ->Accurately ripped! (confidence 3)
    Statistics
        Read error                           : 0
        Skipped (treated as error)           : 0
        Edge jitter error (maybe fixed)      : 0
        Atom jitter error (maybe fixed)      : 0
        Drift error (maybe fixed)            : 0
        Dropped bytes error (maybe fixed)    : 0
        Duplicated bytes error (maybe fixed) : 0

Track 04
    Pre-gap length : 00:03:45

    CRC32 hash             : 53BC2A7A
    CRC32 hash (skip zero) : BC3F9240
    AccurateRip signature  : C450A835
        ->Rip may not be accurate.
    Statistics
        Read error                           : 0
        Skipped (treated as error)           : 0
        Edge jitter error (maybe fixed)      : 2
        Atom jitter error (maybe fixed)      : 1
        Drift error (maybe fixed)            : 0
        Dropped bytes error (maybe fixed)    : 1
        Duplicated bytes error (maybe fixed) : 1

No errors occurred

End of status report
